#!OML:ASF H:\BabyWalks\Project 1\Capture day 1\Session 1\baby.ASF
:FULLY-SPECIFIED
:DEGREES
963
root 43.1325 17.4598 0.391999 -371.537 77.8834 -381.404
lowerback 20.4526 1.21329 1.32841
upperback 7.07601 2.18467 -0.886728
thorax -3.6788 1.25972 -2.21294
lowerneck 3.96835 4.53636 7.51913
upperneck -13.9462 5.67324 -10.6253
head -4.24367 3.15295 -4.79084
rclavicle 8.74653e-015 -7.55382e-015
rhumerus -39.5834 3.05917 -81.6147
rradius 50.6043
rwrist -5.10558
rhand -12.0383 -15.2572
rfingers 7.12502
rthumb 14.0201 -44.7643
lclavicle 8.74653e-015 -7.55382e-015
lhumerus -31.5782 -19.446 71.1993
lradius 61.4761
lwrist 11.2627
lhand 7.32714 14.8245
lfingers 7.12502
lthumb 32.587 41.9109
rfemur -2.59023 16.3049 18.6779
rtibia 16.4713
rfoot -17.9874 13.6942
rtoes 7.44659
lfemur -29.8916 -0.429389 -12.2048
ltibia 38.659
lfoot -19.6735 -6.14695
ltoes -3.75759
964
root 43.1371 17.4626 0.385226 -371.176 77.9001 -381.085
lowerback 20.4427 1.19169 1.28195
upperback 7.07936 2.14773 -0.882848
thorax -3.67376 1.24123 -2.17356
lowerneck 3.95267 4.53609 7.51952
upperneck -13.9676 5.67367 -10.6084
head -4.24809 3.15225 -4.7859
rclavicle 1.43125e-014 5.1684e-015
rhumerus -39.572 3.19698 -81.7239
rradius 50.7037
rwrist -5.07512
rhand -11.9355 -15.1865
rfingers 7.12502
rthumb 14.1191 -44.6868
lclavicle 1.43125e-014 5.1684e-015
lhumerus -31.8721 -19.7819 71.5795
lradius 60.9797
lwrist 10.6499
lhand 7.82046 14.6989
lfingers 7.12502
lthumb 33.0563 41.6872
rfemur -2.62766 16.2947 18.5537
rtibia 16.4561
rfoot -17.9589 13.7124
rtoes 7.20799
lfemur -29.872 -0.431317 -12.3174
ltibia 38.5437
lfoot -19.7042 -6.12741
ltoes -3.69471
965
root 43.1412 17.4656 0.378835 -370.843 77.9225 -380.791
lowerback 20.4401 1.16829 1.23922
upperback 7.0822 2.10938 -0.878378
thorax -3.67282 1.22206 -2.13563
lowerneck 3.9379 4.53842 7.51983
upperneck -13.9903 5.67741 -10.5938
head -4.25264 3.15337 -4.78181
rclavicle -3.77691e-014 1.86858e-014
rhumerus -39.5687 3.33119 -81.8311
rradius 50.7907
rwrist -5.02611
rhand -11.8193 -15.1142
rfingers 7.12502
rthumb 14.2312 -44.6067
lclavicle -3.77691e-014 1.86858e-014
lhumerus -32.1645 -20.0967 71.9651
lradius 60.4916
lwrist 9.99521
lhand 8.23452 14.5655
lfingers 7.12502
lthumb 33.45 41.4696
rfemur -2.66465 16.2889 18.4374
rtibia 16.444
rfoot -17.9278 13.7194
rtoes 6.99774
lfemur -29.854 -0.435207 -12.4239
ltibia 38.4292
lfoot -19.7263 -6.11651
ltoes -3.6361
966
root 43.1445 17.4688 0.372859 -370.554 77.9524 -380.54
lowerback 20.4455 1.14205 1.20321
upperback 7.08322 2.06884 -0.872036
thorax -3.67784 1.20176 -2.09937
lowerneck 3.92763 4.54216 7.52211
upperneck -14.0151 5.68277 -10.5845
head -4.25818 3.15563 -4.77995
rclavicle 3.61788e-014 -7.15625e-015
rhumerus -39.5749 3.46609 -81.9366
rradius 50.8643
rwrist -4.97002
rhand -11.6966 -15.048
rfingers 7.12502
rthumb 14.3494 -44.5321
lclavicle 3.61788e-014 -7.15625e-015
lhumerus -32.4554 -20.4028 72.3561
lradius 60.0095
lwrist 9.32107
lhand 8.54621 14.4277
lfingers 7.12502
lthumb 33.7462 41.2674
rfemur -2.70108 16.2854 18.3333
rtibia 16.4343
rfoot -17.8968 13.7103
rtoes 6.80876
lfemur -29.8412 -0.440833 -12.5208
ltibia 38.3176
lfoot -19.7336 -6.11664
ltoes -3.58808
967
root 43.1474 17.4722 0.367276 -370.273 77.989 -380.293
lowerback 20.4563 1.11515 1.1687
upperback 7.08381 2.02784 -0.866314
thorax -3.68593 1.18126 -2.0647
lowerneck 3.92143 4.54848 7.52492
upperneck -14.0393 5.69128 -10.5803
head -4.26369 3.1598 -4.77999
rclavicle -8.34896e-015 -3.97569e-016
rhumerus -39.5942 3.59397 -82.04
rradius 50.93
rwrist -4.91016
rhand -11.5807 -14.9847
rfingers 7.12502
rthumb 14.4611 -44.4608
lclavicle -8.34896e-015 -3.97569e-016
lhumerus -32.7454 -20.7136 72.7547
lradius 59.5343
lwrist 8.6461
lhand 8.72915 14.2909
lfingers 7.12502
lthumb 33.92 41.0923
rfemur -2.73351 16.2813 18.2331
rtibia 16.426
rfoot -17.8655 13.6898
rtoes 6.63644
lfemur -29.8297 -0.446174 -12.6176
ltibia 38.2105
lfoot -19.7242 -6.12619
ltoes -3.54857
968
root 43.1497 17.4757 0.362156 -370.036 78.0272 -380.089
lowerback 20.4687 1.08866 1.14359
upperback 7.08446 1.98928 -0.859402
thorax -3.69436 1.16204 -2.0347
lowerneck 3.91729 4.55674 7.52901
upperneck -14.0605 5.70219 -10.5808
head -4.26825 3.16536 -4.78173
rclavicle 3.06128e-014 -1.11319e-014
rhumerus -39.6234 3.71295 -82.1402
rradius 50.9873
rwrist -4.85045
rhand -11.4755 -14.9254
rfingers 7.12502
rthumb 14.5623 -44.3942
lclavicle 3.06128e-014 -1.11319e-014
lhumerus -33.0313 -21.0448 73.1616
lradius 59.0669
lwrist 8.00773
lhand 8.76185 14.1659
lfingers 7.12502
lthumb 33.9511 40.9605
rfemur -2.76491 16.2822 18.1467
rtibia 16.4184
rfoot -17.8354 13.6532
rtoes 6.46067
lfemur -29.8239 -0.44661 -12.7037
ltibia 38.1107
lfoot -19.7029 -6.14584
ltoes -3.50846
969
root 43.1516 17.479 0.35741 -369.842 78.0701 -379.928
lowerback 20.4813 1.06234 1.12952
upperback 7.08677 1.95331 -0.850992
thorax -3.70059 1.14427 -2.00992
lowerneck 3.91217 4.56507 7.52989
upperneck -14.077 5.71303 -10.5812
head -4.27129 3.17097 -4.7827
rclavicle 3.61788e-014 1.07344e-014
rhumerus -39.6616 3.82111 -82.2339
rradius 51.0371
rwrist -4.78844
rhand -11.3733 -14.8762
rfingers 7.12502
rthumb 14.6608 -44.3379
lclavicle 3.61788e-014 1.07344e-014
lhumerus -33.3137 -21.4178 73.5813
lradius 58.6079
lwrist 7.42568
lhand 8.63672 14.0566
lfingers 7.12502
lthumb 33.8322 40.8775
rfemur -2.79336 16.2801 18.0731
rtibia 16.4117
rfoot -17.807 13.6045
rtoes 6.29288
lfemur -29.8232 -0.443006 -12.7816
ltibia 38.02
lfoot -19.6631 -6.17645
ltoes -3.4806
